<?xml version="1.0" encoding="iso-8859-1"?>
<!-- Generator: Adobe Illustrator 19.0.0, SVG Export Plug-In . SVG Version: 6.00 Build 0)  -->
<svg version="1.1" id="Layer_1" xmlns="http://www.w3.org/2000/svg" xmlns:xlink="http://www.w3.org/1999/xlink" x="0px" y="0px"
	 viewBox="0 0 512.088 512.088" style="enable-background:new 0 0 512.088 512.088;" xml:space="preserve">
<path d="M512.088,99.096V73.664c0-15.816-12.936-28.752-28.752-28.752h-368.24H28.84c-15.816,0-28.752,12.936-28.752,28.752v25.432
	C0.088,99.096,512.088,99.096,512.088,99.096z"/>
<g style="opacity:0.25;">
	<path style="fill:#FFFFFF;" d="M147.128,44.912h-32.024H28.848c-15.816,0-28.752,12.936-28.752,28.752v25.432h115.888
		L147.128,44.912z"/>
</g>
<circle style="fill:#FF6600;" cx="40.624" cy="72" r="8.184"/>
<circle style="fill:#848484;" cx="65.184" cy="72" r="8.184"/>
<g>
	<circle style="fill:#FFFFFF;" cx="89.744" cy="72" r="8.184"/>
	<path style="fill:#FFFFFF;" d="M428.344,86.384H170.968c-7.904,0-14.376-6.472-14.376-14.376l0,0
		c0-7.904,6.472-14.376,14.376-14.376h257.376c7.904,0,14.376,6.472,14.376,14.376l0,0C442.72,79.912,436.256,86.384,428.344,86.384
		z"/>
</g>
<path d="M180.672,65.448l1.968,7.56c0.432,1.672,0.832,3.2,1.112,4.752h0.096c0.336-1.512,0.832-3.112,1.32-4.72l2.432-7.592h2.28
	l2.304,7.456c0.552,1.784,0.984,3.344,1.32,4.856h0.096c0.24-1.512,0.648-3.08,1.144-4.832l2.12-7.488h2.68l-4.8,14.888h-2.464
	L190,73.216c-0.52-1.656-0.952-3.144-1.32-4.888h-0.064c-0.368,1.784-0.832,3.328-1.352,4.92l-2.4,7.08H182.4l-4.496-14.888h2.768
	V65.448z"/>
<path d="M203.64,65.448l1.968,7.56c0.432,1.672,0.832,3.2,1.112,4.752h0.096c0.336-1.512,0.832-3.112,1.32-4.72l2.432-7.592h2.28
	l2.304,7.456c0.552,1.784,0.984,3.344,1.32,4.856h0.096c0.24-1.512,0.648-3.08,1.144-4.832l2.12-7.488h2.68l-4.8,14.888h-2.464
	l-2.28-7.112c-0.536-1.648-0.96-3.128-1.328-4.88h-0.064c-0.368,1.784-0.832,3.328-1.352,4.92l-2.4,7.08h-2.456l-4.496-14.888
	C200.872,65.448,203.64,65.448,203.64,65.448z"/>
<path d="M226.608,65.448l1.968,7.56c0.432,1.672,0.832,3.2,1.112,4.752h0.096c0.336-1.512,0.832-3.112,1.32-4.72l2.432-7.592h2.28
	l2.304,7.456c0.552,1.784,0.984,3.344,1.32,4.856h0.096c0.24-1.512,0.648-3.08,1.144-4.832l2.12-7.488h2.68l-4.8,14.888h-2.464
	l-2.288-7.104c-0.52-1.656-0.952-3.144-1.32-4.888h-0.064c-0.368,1.784-0.832,3.328-1.352,4.92l-2.4,7.08h-2.464l-4.496-14.888
	C223.832,65.448,226.608,65.448,226.608,65.448z"/>
<path d="M246.288,78.744c0-1.144,0.768-1.936,1.84-1.936s1.816,0.8,1.816,1.936c0,1.112-0.704,1.936-1.84,1.936
	C247.024,80.68,246.288,79.856,246.288,78.744z"/>
<g>
	<rect x="461.416" y="70.376" style="fill:#FFFFFF;" width="23" height="4"/>
	<polygon style="fill:#FFFFFF;" points="474.688,84.304 471.84,81.472 480.952,72.376 471.84,63.272 474.688,60.448 486.608,72.376 
			"/>
</g>
<g>
	<polygon style="fill:#848484;" points="429.912,67.36 422.256,77.256 414.608,67.36 	"/>
	<rect y="99.096" style="fill:#848484;" width="512" height="368.08"/>
</g>
<rect x="15.928" y="115.152" style="fill:#FF6600;" width="480" height="336"/>
<g style="opacity:0.35;">
	<path style="fill:#FFFFFF;" d="M491.928,119.152v328h-472v-328L491.928,119.152 M495.928,115.152h-480v336h480V115.152
		L495.928,115.152z"/>
</g>
<g>
	<path style="fill:#FFFFFF;" d="M80.688,280.736l119.584-55.552v26.408L109.84,291.2v0.504l90.432,39.608v26.408L80.688,302.168
		C80.688,302.168,80.688,280.736,80.688,280.736z"/>
	<path style="fill:#FFFFFF;" d="M218.736,367.688l53.312-180.632h25.16l-53.312,180.632H218.736z"/>
	<path style="fill:#FFFFFF;" d="M431.264,302.904L311.68,357.712v-26.408l92.432-39.608v-0.504l-92.432-39.608v-26.408
		l119.584,54.808L431.264,302.904L431.264,302.904z"/>
</g>
<g>
</g>
<g>
</g>
<g>
</g>
<g>
</g>
<g>
</g>
<g>
</g>
<g>
</g>
<g>
</g>
<g>
</g>
<g>
</g>
<g>
</g>
<g>
</g>
<g>
</g>
<g>
</g>
<g>
</g>
</svg>
