<svg height="512pt" viewBox="0 0 512.1689 512" width="512pt" xmlns="http://www.w3.org/2000/svg"><path d="m503.636719 111.019531v349.863281c0 23.566407-19.105469 42.667969-42.667969 42.667969h-264.53125c-23.566406 0-42.667969-19.101562-42.667969-42.667969v-409.597656c0-23.566406 19.101563-42.667968 42.667969-42.667968h204.796875zm0 0" fill="#607d8b"/><path d="m478.035156 111.019531v349.863281c0 23.566407-19.101562 42.667969-42.667968 42.667969h-238.929688c-23.566406 0-42.667969-19.101562-42.667969-42.667969v-409.597656c0-23.566406 19.101563-42.667968 42.667969-42.667968h179.199219zm0 0" fill="#cfd8dc"/><path d="m190.460938 223.65625c5.28125-3.070312 11.445312-4.273438 17.496093-3.410156 8.941407 1.867187 4.46875 18.910156 4.46875 18.910156s-4.007812 12.046875-28.023437 18.003906h-97.484375c-22.238281-5.972656-26.027344-18.003906-26.027344-18.003906s-4.070313-17.070312 4.269531-18.910156c5.613282-.855469 11.347656.359375 16.136719 3.410156zm0 0" fill="#bfa885"/><path d="m401.234375 8.617188 102.402344 102.402343h-85.335938c-9.425781 0-17.066406-7.644531-17.066406-17.070312zm0 0" fill="#607d8b"/><g fill="#8bc34a"><path d="m374.601562 248.582031-16.03125-16.03125c-6.664062-6.664062-6.664062-17.46875 0-24.132812 6.664063-6.664063 17.464844-6.664063 24.128907 0l6.980469 6.980469c.800781.800781 1.890624 1.253906 3.023437 1.253906s2.21875-.453125 3.019531-1.253906l32.582032-32.582032c6.664062-6.660156 17.464843-6.660156 24.132812 0 6.660156 6.664063 6.660156 17.46875 0 24.132813l-41.636719 41.632812c-9.996093 9.996094-26.199219 9.996094-36.199219 0zm0 0"/><path d="m374.601562 342.449219-16.03125-16.03125c-6.664062-6.667969-6.664062-17.46875 0-24.132813 6.664063-6.664062 17.464844-6.664062 24.128907 0l6.980469 6.980469c.800781.800781 1.890624 1.253906 3.023437 1.253906s2.21875-.453125 3.019531-1.253906l32.582032-32.582031c6.664062-6.664063 17.464843-6.664063 24.132812 0 6.660156 6.664062 6.660156 17.46875 0 24.132812l-41.636719 41.632813c-9.996093 9.996093-26.199219 9.996093-36.199219 0zm0 0"/><path d="m374.601562 436.316406-16.03125-16.035156c-6.664062-6.664062-6.664062-17.464844 0-24.128906 6.664063-6.664063 17.464844-6.664063 24.128907 0l6.980469 6.976562c.800781.804688 1.890624 1.253906 3.023437 1.253906s2.21875-.449218 3.019531-1.253906l32.582032-32.578125c6.664062-6.664062 17.464843-6.664062 24.132812 0 6.660156 6.664063 6.660156 17.46875 0 24.132813l-41.636719 41.632812c-9.996093 9.996094-26.199219 9.996094-36.199219 0zm0 0"/></g><path d="m264.703125 414.558594c0 54.859375-128 54.859375-128 54.859375s-6.085937 0-15.675781-.546875h-.648438c-34.449218-2.191406-111.675781-11.742188-111.675781-54.3125-1.1875-18.773438 4.585937-37.328125 16.210937-52.113282 7.726563-7.9375 17.128907-14.046874 27.523438-17.878906 9.878906-3.910156 20.324219-6.214844 30.929688-6.828125 0 0 0 25.898438 37.335937 62.429688 4.691406 4.609375 10.027344 9.441406 16 14.371093 38.9375-32.035156 49.390625-58.144531 52.265625-69.972656.597656-2.230468.957031-4.519531 1.066406-6.828125 21.816406.957031 42.558594 9.71875 58.453125 24.6875 11.632813 14.792969 17.40625 33.351563 16.214844 52.132813zm0 0" fill="#283593"/><path d="m247.636719 414.558594c0 42.570312-82.375 52.121094-119.125 54.3125h-.683594c-36.753906-2.191406-119.125-11.742188-119.125-54.3125-1.207031-18.957032 4.992187-37.644532 17.296875-52.113282 8.371094-8.019531 18.386719-14.121093 29.355469-17.878906 3.070312 11.84375 14.214843 37.957032 55.746093 69.972656 6.375-4.929687 12.058594-9.761718 17.066407-14.371093 39.824219-36.53125 39.824219-62.429688 39.824219-62.429688 11.277343.605469 22.402343 2.90625 32.992187 6.828125 10.964844 3.757813 20.984375 9.859375 29.355469 17.878906 12.300781 14.46875 18.503906 33.15625 17.296875 52.113282zm0 0" fill="#3f51b5"/><path d="m190.035156 337.757812s0 32.921876-53.332031 76.800782c-53.335937-43.878906-53.335937-76.800782-53.335937-76.800782s32 21.945313 53.335937 21.945313c21.332031 0 53.332031-21.945313 53.332031-21.945313zm0 0" fill="#f5f5f5"/><path d="m190.035156 337.757812s-32 21.945313-53.332031 21.945313c-21.335937 0-53.335937-21.945313-53.335937-21.945313 8.609374-12.144531 15.46875-25.4375 20.371093-39.492187h65.929688c4.902343 14.054687 11.757812 27.347656 20.367187 39.492187zm0 0" fill="#bfa885"/><path d="m190.785156 253.609375c0 12.800781 4.15625 23.808594-12.484375 36.640625-16.636719 12.835938-16.636719 25.601562-33.277343 25.601562h-16.640626c-3.625.148438-7.214843-.742187-10.351562-2.558593-7.464844-4.269531-10.667969-13.714844-22.929688-23.042969-16.640624-12.796875-12.484374-23.804688-12.484374-36.640625 0-12.832031-6.1875-16.460937-4.15625-52.992187 1.382812-23.894532 23.996093-32.914063 39.570312-36.429688 4.777344-1.035156 9.625-1.695312 14.507812-1.96875h8.328126s52.050781 1.867188 54.074218 38.398438c2.023438 36.53125-4.15625 40.269531-4.15625 52.992187zm0 0" fill="#bfa885"/><path d="m165.503906 253.609375c0 12.800781 4.820313 23.808594-14.507812 36.640625-14.226563 9.328125-17.921875 18.773438-26.597656 23.042969-8.664063-4.269531-12.367188-13.714844-26.601563-23.042969-19.292969-12.796875-14.503906-23.804688-14.503906-36.640625 0-12.832031-7.175781-16.460937-4.820313-52.992187 1.601563-23.894532 27.832032-32.914063 45.890625-36.429688 18.066407 3.515625 44.375 12.511719 45.902344 36.429688 2.53125 36.53125-4.761719 40.269531-4.761719 52.992187zm0 0" fill="#ffe0b2"/><path d="m18.710938 359.550781c-13.234376 15.75-19.878907 36.003907-18.542969 56.535157 0 60.160156 122.558593 61.863281 136.535156 61.863281s136.53125-1.703125 136.53125-61.863281c1.339844-20.53125-5.304687-40.785157-18.542969-56.535157-16.378906-15.238281-37.429687-24.484375-59.730468-26.238281-15.789063-24.320312-17.632813-34.203125-17.742188-34.988281 0-.085938-.050781-.152344-.058594-.246094.492188-.453125.921875-.90625 1.457032-1.367187 10.238281-7.886719 15.742187-20.457032 14.59375-33.332032 21.878906-7.429687 26.757812-20.070312 27.425781-22.089844 2.292969-7.519531 1.757812-15.617187-1.503907-22.769531-2.074218-3.441406-5.496093-5.855469-9.4375-6.65625-4.234374-.84375-8.601562-.75-12.800781.273438 0-3.617188-.117187-7.484375-.339843-11.945313-1.800782-35.089844-37.988282-45.757812-57.171876-46.5h-7.800781c-18.875.734375-55.066406 11.402344-56.855469 46.492188-.222656 4.351562-.308593 8.140625-.34375 11.691406-3.652343-.800781-7.4375-.800781-11.09375 0-3.742187.820312-6.980468 3.140625-8.96875 6.414062-3.316406 7.355469-3.878906 15.65625-1.585937 23.390626 4.824219 10.578124 14.117187 18.449218 25.34375 21.460937-1.226563 12.949219 4.28125 25.625 14.582031 33.5625 1.171875 1.007813 2.21875 2.003906 3.203125 3.003906-4.128906 11.996094-10.003906 23.320313-17.433593 33.605469-22.296876 1.761719-43.339844 11.007812-59.71875 26.238281zm237.457031 56.535157c0 36.519531-88.472657 44.796874-119.464844 44.796874s-119.46875-8.222656-119.46875-44.796874c-1.234375-16.175782 3.738281-32.214844 13.910156-44.851563 12.589844-11.359375 28.390625-18.535156 45.226563-20.550781 3.550781 13.492187 15.359375 40.371094 55.015625 72.066406.203125.160156.460937.203125.683593.347656.476563.316406.984376.578125 1.515626.785156.984374.433594 2.050781.636719 3.125.605469.542968.011719 1.085937-.03125 1.621093-.125.519531-.113281 1.023438-.269531 1.511719-.480469.535156-.207031 1.050781-.46875 1.535156-.785156.214844-.144531.46875-.1875.671875-.347656 39.613281-31.695312 51.464844-58.574219 55.015625-72.066406 16.835938 2.011718 32.636719 9.191406 45.226563 20.550781 10.160156 12.640625 15.121093 28.679687 13.875 44.851563zm-78.199219-62.226563c-9.53125 20.050781-23.671875 37.566406-41.265625 51.105469-17.597656-13.542969-31.742187-31.054688-41.285156-51.105469 13.445312 3.878906 27.304687 6.144531 41.285156 6.757813 13.972656-.613282 27.828125-2.878907 41.265625-6.757813zm-69.707031-38.65625c4.839843 5.992187 12.207031 9.378906 19.90625 9.148437h14.976562c8.472657.195313 16.476563-3.859374 21.332031-10.804687 3.535157 7.945313 7.648438 15.617187 12.308594 22.957031-13.03125 3.949219-26.488281 6.3125-40.082031 7.046875-13.574219-.742187-27.011719-3.109375-40.023437-7.046875 4.316406-6.84375 8.183593-13.957031 11.582031-21.300781zm96.585937-86.835937c.234375 2.667968.042969 5.355468-.570312 7.960937-2.585938 3.691406-6.160156 6.574219-10.316406 8.3125.078124-.359375.109374-.65625.1875-1.039063.929687-4.398437 1.625-8.84375 2.082031-13.3125 2.671875-1.34375 5.632812-2 8.617187-1.921874zm-135.789062 8.167968c-.566406-2.691406-.734375-5.453125-.496094-8.191406 2.25.015625 4.464844.566406 6.460938 1.601562.457031 4.585938 1.164062 9.144532 2.117187 13.65625l.085937.476563c-3.363281-1.722656-6.1875-4.332031-8.167968-7.542969zm26.222656 23.894532c.109375-2.230469.222656-4.480469.222656-6.828126-.066406-4.519531-.617187-9.015624-1.648437-13.414062-2.585938-12.890625-3.296875-26.085938-2.105469-39.175781 1.441406-28.273438 38.902344-30.242188 40.148438-30.304688h7.152343c.390625 0 39.03125 1.851563 40.488281 30.3125 1.191407 13.09375.480469 26.289063-2.117187 39.175781-1.023437 4.398438-1.570313 8.898438-1.636719 13.414063 0 2.320313.109375 4.574219.222656 6.828125 2.003907 8.75-1.308593 17.867188-8.464843 23.285156-5.1875 4.550782-9.773438 9.734375-13.65625 15.4375-4.980469 6.886719-6.234375 8.117188-10.777344 8.117188h-14.941406c-4.53125 0-5.785157-1.230469-10.757813-8.117188-3.882812-5.699218-8.472656-10.886718-13.65625-15.4375-7.15625-5.417968-10.472656-14.527344-8.472656-23.277344zm0 0"/><path d="m511.605469 108.234375c-.078125-.269531-.171875-.539063-.28125-.800781-.402344-.890625-.953125-1.710938-1.628907-2.414063v-.042969l-102.402343-102.398437c-.722657-.683594-1.554688-1.238281-2.464844-1.640625-.277344-.113281-.5625-.214844-.851563-.296875-.710937-.246094-1.453124-.394531-2.203124-.445313-.179688-.007812-.339844-.1093745-.539063-.1093745h-204.796875c-28.265625.0273435-51.171875 22.9335935-51.203125 51.1992185v68.265625c0 4.714844 3.820313 8.535157 8.535156 8.535157 4.710938 0 8.53125-3.820313 8.53125-8.535157v-68.265625c0-18.851562 15.285157-34.132812 34.136719-34.132812h196.265625v76.796875c0 14.140625 11.460937 25.601562 25.597656 25.601562h76.800781v341.332031c0 18.851563-15.28125 34.136719-34.132812 34.136719h-264.53125c-4.195312-.015625-8.351562-.785156-12.273438-2.273437-2.882812-1.203125-6.195312-.730469-8.628906 1.226562-2.4375 1.957032-3.609375 5.089844-3.054687 8.164063.554687 3.074219 2.746093 5.601562 5.710937 6.585937 5.828125 2.210938 12.011719 3.347656 18.246094 3.363282h264.53125c28.265625-.03125 51.171875-22.9375 51.199219-51.203126v-349.863281c0-.179687-.09375-.335937-.101563-.515625-.050781-.773437-.203125-1.535156-.460937-2.269531zm-93.304688-5.75c-4.710937 0-8.53125-3.820313-8.53125-8.535156v-64.730469l73.265625 73.265625zm0 0"/><path d="m298.835938 128.085938c5.457031-.003907 10.3125-3.46875 12.089843-8.628907l21.609375-65.5c.953125-2.898437.289063-6.082031-1.742187-8.359375-2.03125-2.273437-5.121094-3.289062-8.105469-2.667968-2.984375.621093-5.414062 2.789062-6.367188 5.683593l-17.484374 53.019531-17.503907-53.019531c-.953125-2.894531-3.378906-5.0625-6.363281-5.683593-2.988281-.621094-6.078125.394531-8.109375 2.667968-2.03125 2.277344-2.691406 5.460938-1.738281 8.359375l21.769531 65.824219c1.839844 5.003906 6.613281 8.320312 11.945313 8.304688zm0 0"/><path d="m213.503906 59.816406h17.066406c4.710938 0 8.53125 3.820313 8.53125 8.535156 0 4.710938 3.820313 8.53125 8.535157 8.53125 4.710937 0 8.53125-3.820312 8.53125-8.53125 0-14.140624-11.460938-25.601562-25.597657-25.601562h-17.066406c-14.140625 0-25.601562 11.460938-25.601562 25.601562v34.132813c0 14.136719 11.460937 25.601563 25.601562 25.601563h17.066406c14.136719 0 25.597657-11.464844 25.597657-25.601563 0-4.710937-3.820313-8.535156-8.53125-8.535156-4.714844 0-8.535157 3.824219-8.535157 8.535156 0 4.714844-3.820312 8.535156-8.53125 8.535156h-17.066406c-4.714844 0-8.535156-3.820312-8.535156-8.535156v-34.132813c0-4.714843 3.820312-8.535156 8.535156-8.535156zm0 0"/><path d="m368.570312 254.617188c13.328126 13.324218 34.933594 13.324218 48.265626 0l41.632812-41.625c9.859375-10.019532 9.796875-26.117188-.144531-36.058594-9.9375-9.9375-26.03125-10.007813-36.054688-.148438l-29.566406 29.558594-3.96875-3.960938c-6.425781-6.652343-15.945313-9.324218-24.894531-6.980468-8.953125 2.34375-15.941406 9.332031-18.285156 18.285156-2.34375 8.949219.328124 18.46875 6.980468 24.894531zm-3.96875-40.160157c3.332032-3.328125 8.734376-3.328125 12.066407 0l6.980469 6.972657c2.402343 2.402343 5.65625 3.753906 9.054687 3.753906 3.394531 0 6.652344-1.351563 9.054687-3.753906l32.578126-32.570313c2.128906-2.273437 5.328124-3.203125 8.34375-2.429687 3.015624.773437 5.371093 3.125 6.144531 6.140624.777343 3.015626-.152344 6.214844-2.421875 8.347657l-41.632813 41.632812c-6.753906 6.449219-17.382812 6.449219-24.132812 0l-16.035157-16.035156c-3.324218-3.332031-3.324218-8.726563 0-12.058594zm0 0"/><path d="m352.535156 332.449219 16.035156 16.035156c13.328126 13.324219 34.933594 13.324219 48.265626 0l41.632812-41.625c9.859375-10.019531 9.796875-26.117187-.144531-36.058594-9.9375-9.941406-26.03125-10.007812-36.054688-.148437l-29.566406 29.558594-3.96875-3.960938c-6.425781-6.652344-15.945313-9.324219-24.894531-6.980469-8.953125 2.34375-15.941406 9.332031-18.285156 18.285157-2.34375 8.949218.328124 18.46875 6.980468 24.894531zm12.066406-24.125c3.332032-3.328125 8.734376-3.328125 12.066407 0l6.980469 6.972656c2.402343 2.402344 5.65625 3.753906 9.054687 3.753906 3.394531 0 6.652344-1.351562 9.054687-3.753906l32.578126-32.570313c2.128906-2.273437 5.328124-3.203124 8.34375-2.429687 3.015624.773437 5.371093 3.125 6.144531 6.140625.777343 3.015625-.152344 6.214844-2.421875 8.34375l-41.632813 41.636719c-6.753906 6.449219-17.382812 6.449219-24.132812 0l-16.035157-16.035157c-3.324218-3.332031-3.324218-8.726562 0-12.058593zm0 0"/><path d="m352.535156 426.316406 16.035156 16.035156c13.328126 13.324219 34.933594 13.324219 48.265626 0l41.632812-41.628906c9.859375-10.015625 9.796875-26.113281-.144531-36.054687-9.9375-9.941407-26.03125-10.007813-36.054688-.152344l-29.566406 29.5625-3.96875-3.960937c-6.425781-6.65625-15.945313-9.324219-24.894531-6.980469-8.953125 2.34375-15.941406 9.332031-18.285156 18.28125-2.34375 8.953125.328124 18.46875 6.980468 24.898437zm12.066406-24.125c3.332032-3.332031 8.734376-3.332031 12.066407 0l6.980469 6.972656c2.402343 2.402344 5.65625 3.75 9.054687 3.75 3.394531 0 6.652344-1.347656 9.054687-3.75l32.578126-32.570312c2.128906-2.273438 5.328124-3.203125 8.34375-2.429688 3.015624.773438 5.371093 3.125 6.144531 6.140626.777343 3.015624-.152344 6.214843-2.421875 8.34375l-41.632813 41.636718c-6.753906 6.449219-17.382812 6.449219-24.132812 0l-16.035157-16.035156c-3.324218-3.332031-3.324218-8.726562 0-12.058594zm0 0"/><path d="m213.503906 170.75c0 4.714844 3.820313 8.535156 8.53125 8.535156h93.867188c4.710937 0 8.535156-3.820312 8.535156-8.535156 0-4.710938-3.824219-8.53125-8.535156-8.53125h-93.867188c-4.710937 0-8.53125 3.820312-8.53125 8.53125zm0 0"/><path d="m315.902344 196.351562h-76.800782c-4.710937 0-8.53125 3.820313-8.53125 8.53125 0 4.714844 3.820313 8.535157 8.53125 8.535157h76.800782c4.710937 0 8.535156-3.820313 8.535156-8.535157 0-4.710937-3.824219-8.53125-8.535156-8.53125zm0 0"/><path d="m315.902344 230.484375h-76.800782c-4.710937 0-8.53125 3.820313-8.53125 8.535156 0 4.710938 3.820313 8.53125 8.53125 8.53125h76.800782c4.710937 0 8.535156-3.820312 8.535156-8.53125 0-4.714843-3.824219-8.535156-8.535156-8.535156zm0 0"/><path d="m315.902344 264.617188h-76.800782c-4.710937 0-8.53125 3.820312-8.53125 8.535156 0 4.710937 3.820313 8.53125 8.53125 8.53125h76.800782c4.710937 0 8.535156-3.820313 8.535156-8.53125 0-4.714844-3.824219-8.535156-8.535156-8.535156zm0 0"/><path d="m315.902344 298.75h-102.398438c-4.714844 0-8.535156 3.820312-8.535156 8.535156 0 4.710938 3.820312 8.53125 8.535156 8.53125h102.398438c4.710937 0 8.535156-3.820312 8.535156-8.53125 0-4.714844-3.824219-8.535156-8.535156-8.535156zm0 0"/><path d="m315.902344 332.882812h-43.179688c-4.710937 0-8.53125 3.820313-8.53125 8.535157 0 4.710937 3.820313 8.53125 8.53125 8.53125h43.179688c4.710937 0 8.535156-3.820313 8.535156-8.53125 0-4.714844-3.824219-8.535157-8.535156-8.535157zm0 0"/><path d="m315.902344 367.019531h-22.953125c-4.714844 0-8.535157 3.820313-8.535157 8.53125 0 4.714844 3.820313 8.535157 8.535157 8.535157h22.953125c4.710937 0 8.535156-3.820313 8.535156-8.535157 0-4.710937-3.824219-8.53125-8.535156-8.53125zm0 0"/><path d="m315.902344 401.152344h-17.152344c-4.710938 0-8.53125 3.820312-8.53125 8.53125 0 4.714844 3.820312 8.535156 8.53125 8.535156h17.152344c4.710937 0 8.535156-3.820312 8.535156-8.535156 0-4.710938-3.824219-8.53125-8.535156-8.53125zm0 0"/><path d="m315.902344 435.285156h-22.953125c-4.714844 0-8.535157 3.820313-8.535157 8.53125 0 4.714844 3.820313 8.535156 8.535157 8.535156h22.953125c4.710937 0 8.535156-3.820312 8.535156-8.535156 0-4.710937-3.824219-8.53125-8.535156-8.53125zm0 0"/></svg>