<?xml version="1.0" encoding="iso-8859-1"?>
<!-- Generator: Adobe Illustrator 19.0.0, SVG Export Plug-In . SVG Version: 6.00 Build 0)  -->
<svg version="1.1" id="Capa_1" xmlns="http://www.w3.org/2000/svg" xmlns:xlink="http://www.w3.org/1999/xlink" x="0px" y="0px"
	 viewBox="0 0 512 512" style="enable-background:new 0 0 512 512;" xml:space="preserve">
<path style="fill:#FCB043;" d="M487.932,140.031c9.15,0,16.568,7.418,16.568,16.567v298.199c0,9.15-7.418,16.567-16.568,16.567
	h-86.975H111.042H24.067c-9.15,0-16.567-7.417-16.567-16.567V156.599c0-9.15,7.417-16.567,16.567-16.567h463.865V140.031z"/>
<path style="fill:#EF9122;" d="M484.5,156.599v298.199c0,9.15-7.418,16.567-16.568,16.567h20c9.15,0,16.568-7.418,16.568-16.567
	V156.599c0-9.15-7.418-16.567-16.568-16.567h-20C477.082,140.031,484.5,147.449,484.5,156.599z"/>
<path style="fill:#FFCE94;" d="M503.106,149.958c-2.177-4.967-6.716-8.651-12.198-9.647H21.091
	c-5.482,0.996-10.021,4.681-12.197,9.648c0.014,0.01,0.026,0.022,0.039,0.032l242.626,178.315c1.321,0.971,2.881,1.457,4.441,1.457
	s3.12-0.485,4.441-1.457l242.624-178.315C503.08,149.982,503.092,149.969,503.106,149.958z"/>
<path style="fill:#FCB043;" d="M503.066,149.992c0.014-0.01,0.026-0.022,0.04-0.033c-0.148-0.339-0.31-0.67-0.48-0.997
	c-0.106-0.204-0.219-0.404-0.333-0.603c-0.115-0.2-0.235-0.395-0.358-0.59c-0.184-0.292-0.377-0.577-0.579-0.855
	c-0.135-0.187-0.271-0.372-0.414-0.553c-0.147-0.187-0.298-0.371-0.453-0.552c-0.152-0.177-0.311-0.347-0.47-0.517
	c-0.248-0.265-0.505-0.522-0.77-0.771c-0.138-0.129-0.277-0.256-0.419-0.381c-0.192-0.168-0.384-0.335-0.583-0.494
	c-0.263-0.21-0.533-0.411-0.809-0.605c-0.221-0.155-0.449-0.302-0.678-0.446c-0.129-0.082-0.261-0.16-0.392-0.238
	c-0.418-0.248-0.848-0.477-1.289-0.688c-0.105-0.051-0.209-0.104-0.316-0.152c-0.266-0.12-0.535-0.233-0.808-0.34
	c-0.105-0.041-0.212-0.077-0.318-0.116c-0.484-0.178-0.978-0.333-1.481-0.466c-0.12-0.032-0.241-0.064-0.362-0.093
	c-0.293-0.07-0.588-0.136-0.887-0.19l0,0h-20c7.728,1.404,13.592,8.154,13.592,16.286v7.038L503.066,149.992z"/>
<path style="fill:#DEF2FC;" d="M117.466,438.233H46.633c-3.314,0-6-2.686-6-6V361.4c0-3.314,2.686-6,6-6h70.833c3.314,0,6,2.686,6,6
	v70.833C123.466,435.547,120.78,438.233,117.466,438.233z"/>
<g>
	<path style="fill:#04A1EE;" d="M92.617,413.384H71.482c-3.314,0-6-2.686-6-6v-21.135c0-3.314,2.686-6,6-6h21.135
		c3.314,0,6,2.686,6,6v21.135C98.617,410.698,95.931,413.384,92.617,413.384z"/>
	<circle style="fill:#04A1EE;" cx="256" cy="140.03" r="99.4"/>
</g>
<path style="fill:#0084CE;" d="M256.001,40.637c-3.375,0-6.711,0.17-10,0.499c50.2,5.015,89.398,47.379,89.398,98.9
	s-39.198,93.885-89.398,98.9c3.289,0.328,6.625,0.499,10,0.499c54.896,0,99.398-44.502,99.398-99.398
	C355.399,85.139,310.897,40.637,256.001,40.637z"/>
<path style="fill:#DEF2FC;" d="M287.779,127.663l-15.211,15.211V79.768c0-3.314-2.686-6-6-6h-21.133c-3.314,0-6,2.686-6,6v63.108
	l-14.799-14.798c-2.343-2.343-6.142-2.343-8.485,0l-14.944,14.944c-2.343,2.343-2.343,6.142,0,8.485l50.551,50.551
	c2.343,2.343,6.142,2.343,8.485,0l50.965-50.965c2.343-2.343,2.343-6.142,0-8.485l-14.944-14.944
	C293.921,125.32,290.122,125.32,287.779,127.663z"/>
<path d="M40.633,347.9c-4.143,0-7.5,3.358-7.5,7.5v82.833c0,4.142,3.357,7.5,7.5,7.5h82.833c4.143,0,7.5-3.358,7.5-7.5V355.4
	c0-4.142-3.357-7.5-7.5-7.5H40.633z M115.966,430.733H48.133V362.9h67.833V430.733z"/>
<path d="M65.482,420.884h33.135c4.143,0,7.5-3.358,7.5-7.5v-33.135c0-4.142-3.357-7.5-7.5-7.5H65.482c-4.143,0-7.5,3.358-7.5,7.5
	v33.135C57.982,417.526,61.34,420.884,65.482,420.884z M72.982,387.749h18.135v18.135H72.982V387.749z"/>
<path d="M206.299,364.466H156.6c-4.143,0-7.5,3.358-7.5,7.5s3.357,7.5,7.5,7.5h49.699c4.143,0,7.5-3.358,7.5-7.5
	C213.799,367.824,210.441,364.466,206.299,364.466z"/>
<path d="M206.299,397.602h-49.697c-4.143,0-7.5,3.358-7.5,7.5s3.357,7.5,7.5,7.5h49.697c4.143,0,7.5-3.358,7.5-7.5
	S210.441,397.602,206.299,397.602z"/>
<path d="M231.15,397.602c-4.143,0-7.5,3.358-7.5,7.5s3.357,7.5,7.5,7.5H256c4.143,0,7.5-3.358,7.5-7.5s-3.357-7.5-7.5-7.5H231.15z"
	/>
<path d="M250.696,211.605c1.407,1.407,3.314,2.197,5.304,2.197c1.989,0,3.897-0.79,5.304-2.197l59.45-59.451
	c2.929-2.929,2.929-7.678,0-10.606l-23.429-23.429c-2.93-2.929-7.678-2.929-10.607,0l-6.65,6.651V73.768c0-4.142-3.357-7.5-7.5-7.5
	h-33.134c-4.143,0-7.5,3.358-7.5,7.5v51.001l-6.237-6.238c-1.407-1.407-3.314-2.197-5.304-2.197c-1.989,0-3.896,0.79-5.304,2.197
	L191.66,141.96c-2.929,2.929-2.929,7.678,0,10.606L250.696,211.605z M220.393,134.443l13.737,13.738
	c2.146,2.145,5.37,2.787,8.174,1.626c2.803-1.161,4.63-3.895,4.63-6.929V81.268h18.134v61.607c0,3.034,1.827,5.768,4.63,6.929
	c2.802,1.162,6.028,0.52,8.174-1.626l14.15-14.151l12.822,12.822L256,195.695l-48.43-48.43L220.393,134.443z"/>
<path d="M503.766,138.495c-0.142-0.134-0.289-0.26-0.439-0.381c-0.079-0.066-0.159-0.13-0.239-0.195
	c-0.006-0.004-0.011-0.009-0.017-0.013c-4.138-3.358-9.406-5.376-15.139-5.376h-125.3c-3.865-55.456-50.21-99.395-106.631-99.395
	s-102.766,43.94-106.631,99.395H24.067c-5.729,0-10.993,2.015-15.13,5.369c-0.022,0.016-0.043,0.035-0.066,0.051
	c-0.057,0.047-0.114,0.093-0.171,0.14c-0.165,0.132-0.325,0.269-0.48,0.416C3.187,142.922,0,149.393,0,156.599v298.199
	c0,13.271,10.797,24.067,24.067,24.067h367.234c4.143,0,7.5-3.358,7.5-7.5s-3.357-7.5-7.5-7.5H24.067c-5,0-9.067-4.067-9.067-9.067
	V156.599c0-0.682,0.082-1.343,0.225-1.982l236.333,173.691c1.321,0.971,2.881,1.457,4.441,1.457s3.12-0.485,4.441-1.457
	l236.333-173.693c0.143,0.639,0.225,1.301,0.225,1.984v298.199c0,4.999-4.067,9.067-9.067,9.067H421.25c-4.143,0-7.5,3.358-7.5,7.5
	s3.357,7.5,7.5,7.5h66.683c13.271,0,24.067-10.796,24.067-24.067V156.599C512,149.387,508.807,142.911,503.766,138.495z
	 M256.001,48.137c50.667,0,91.888,41.216,91.898,91.88c0,0.005-0.001,0.01-0.001,0.015s0.001,0.011,0.001,0.016
	c-0.007,50.667-41.229,91.886-91.898,91.886c-50.673,0-91.899-41.226-91.899-91.898C164.102,89.361,205.328,48.137,256.001,48.137z
	 M256,312.956L30.914,147.531H149.37c3.861,55.459,50.208,99.402,106.632,99.402s102.771-43.943,106.632-99.402h118.452L256,312.956
	z"/>
<g>
</g>
<g>
</g>
<g>
</g>
<g>
</g>
<g>
</g>
<g>
</g>
<g>
</g>
<g>
</g>
<g>
</g>
<g>
</g>
<g>
</g>
<g>
</g>
<g>
</g>
<g>
</g>
<g>
</g>
</svg>
